<svg width="512" height="512" viewBox="0 0 512 512" fill="none" xmlns="http://www.w3.org/2000/svg">
<g clip-path="url(#clip0)">
<rect x="79" y="151" width="16" height="56" fill="#434344"/>
<rect x="416" y="158" width="16" height="56" fill="#434344"/>
<path d="M424 168.5C424 212.955 400.128 439.89 372 470C341.246 502.921 304.105 486.5 255.5 486.5C181.562 685.265 110.057 501.227 87 168.5C87 75.44 162.44 0 255.5 0C348.56 0 424 75.44 424 168.5Z" fill="#604995"/>
<ellipse cx="255.5" cy="179.5" rx="143.5" ry="154.5" fill="#242424"/>
<ellipse cx="254.5" cy="179" rx="122.5" ry="132" fill="#373737"/>
<ellipse cx="179.7" cy="101.111" rx="15.5" ry="29" transform="rotate(37.1096 179.7 101.111)" fill="#4A4A4A"/>
<path d="M516 511.726L0 511.726C48.8428 465.739 93.5 398.848 143 394C162.274 392.112 204.564 438.404 250.5 443.5C303.778 449.41 318.937 391.494 383 407.652C432.978 420.257 475.511 473.93 516 511.726Z" fill="#7C5CC7"/>
</g>
<defs>
<clipPath id="clip0">
<rect width="512" height="512" fill="white"/>
</clipPath>
</defs>
</svg>
